<svg xmlns="http://www.w3.org/2000/svg" viewBox="0 0 200 200" width="400" height="400"><rect width="200" height="200" fill="#A9CADB"/><ellipse cx="100" cy="100" rx="84" ry="70" fill="#98b5c5" stroke="#5f8fa8" stroke-width="3"/><path d="M2.6 17.5q7-6 14 0t14 0" stroke="#5f8fa8" stroke-width="2" fill="none" stroke-linecap="round"/><path d="M40.4 16.7q7-6 14 0t14 0" stroke="#5f8fa8" stroke-width="2" fill="none" stroke-linecap="round"/><path d="M71.1 17.7q7-6 14 0t14 0" stroke="#5f8fa8" stroke-width="2" fill="none" stroke-linecap="round"/><path d="M102.5 17.1q7-6 14 0t14 0" stroke="#5f8fa8" stroke-width="2" fill="none" stroke-linecap="round"/><path d="M140.0 19.3q7-6 14 0t14 0" stroke="#5f8fa8" stroke-width="2" fill="none" stroke-linecap="round"/><path d="M169.8 15.4q7-6 14 0t14 0" stroke="#5f8fa8" stroke-width="2" fill="none" stroke-linecap="round"/><path d="M16.7 53.5q7-6 14 0t14 0" stroke="#5f8fa8" stroke-width="2" fill="none" stroke-linecap="round"/><path d="M55.5 47.3q7-6 14 0t14 0" stroke="#5f8fa8" stroke-width="2" fill="none" stroke-linecap="round"/><path d="M91.9 54.7q7-6 14 0t14 0" stroke="#5f8fa8" stroke-width="2" fill="none" stroke-linecap="round"/><path d="M123.2 51.9q7-6 14 0t14 0" stroke="#5f8fa8" stroke-width="2" fill="none" stroke-linecap="round"/><path d="M153.3 47.1q7-6 14 0t14 0" stroke="#5f8fa8" stroke-width="2" fill="none" stroke-linecap="round"/><path d="M3.2 81.5q7-6 14 0t14 0" stroke="#5f8fa8" stroke-width="2" fill="none" stroke-linecap="round"/><path d="M34.5 82.9q7-6 14 0t14 0" stroke="#5f8fa8" stroke-width="2" fill="none" stroke-linecap="round"/><path d="M67.2 84.7q7-6 14 0t14 0" stroke="#5f8fa8" stroke-width="2" fill="none" stroke-linecap="round"/><path d="M104.5 87.7q7-6 14 0t14 0" stroke="#5f8fa8" stroke-width="2" fill="none" stroke-linecap="round"/><path d="M139.2 86.1q7-6 14 0t14 0" stroke="#5f8fa8" stroke-width="2" fill="none" stroke-linecap="round"/><path d="M173.0 86.3q7-6 14 0t14 0" stroke="#5f8fa8" stroke-width="2" fill="none" stroke-linecap="round"/><path d="M19.7 117.2q7-6 14 0t14 0" stroke="#5f8fa8" stroke-width="2" fill="none" stroke-linecap="round"/><path d="M58.0 123.0q7-6 14 0t14 0" stroke="#5f8fa8" stroke-width="2" fill="none" stroke-linecap="round"/><path d="M90.7 120.7q7-6 14 0t14 0" stroke="#5f8fa8" stroke-width="2" fill="none" stroke-linecap="round"/><path d="M120.5 116.8q7-6 14 0t14 0" stroke="#5f8fa8" stroke-width="2" fill="none" stroke-linecap="round"/><path d="M154.3 115.6q7-6 14 0t14 0" stroke="#5f8fa8" stroke-width="2" fill="none" stroke-linecap="round"/><path d="M5.1 152.2q7-6 14 0t14 0" stroke="#5f8fa8" stroke-width="2" fill="none" stroke-linecap="round"/><path d="M39.8 152.1q7-6 14 0t14 0" stroke="#5f8fa8" stroke-width="2" fill="none" stroke-linecap="round"/><path d="M74.7 155.8q7-6 14 0t14 0" stroke="#5f8fa8" stroke-width="2" fill="none" stroke-linecap="round"/><path d="M101.0 150.7q7-6 14 0t14 0" stroke="#5f8fa8" stroke-width="2" fill="none" stroke-linecap="round"/><path d="M142.3 152.8q7-6 14 0t14 0" stroke="#5f8fa8" stroke-width="2" fill="none" stroke-linecap="round"/><path d="M176.8 152.2q7-6 14 0t14 0" stroke="#5f8fa8" stroke-width="2" fill="none" stroke-linecap="round"/><path d="M16.6 188.0q7-6 14 0t14 0" stroke="#5f8fa8" stroke-width="2" fill="none" stroke-linecap="round"/><path d="M56.2 185.2q7-6 14 0t14 0" stroke="#5f8fa8" stroke-width="2" fill="none" stroke-linecap="round"/><path d="M84.7 185.7q7-6 14 0t14 0" stroke="#5f8fa8" stroke-width="2" fill="none" stroke-linecap="round"/><path d="M125.7 189.1q7-6 14 0t14 0" stroke="#5f8fa8" stroke-width="2" fill="none" stroke-linecap="round"/><path d="M152.9 185.0q7-6 14 0t14 0" stroke="#5f8fa8" stroke-width="2" fill="none" stroke-linecap="round"/></svg>