<svg xmlns="http://www.w3.org/2000/svg" viewBox="-190.00 0.00 600.00 600.00" width="512" height="512"><polygon points="110.0,10.0 110.4,10.0 116.4,14.5 116.4,17.5 125.8,37.2 133.4,56.8 144.3,97.5 150.8,132.3 157.5,183.6 161.7,302.8 162.8,307.4 169.2,313.4 170.0,400.9 164.0,410.0 164.3,520.2 159.1,524.7 157.5,585.1 161.7,586.6 161.7,588.1 110.4,589.6 110.0,589.6 110.0,589.6 109.6,589.6 58.3,588.1 58.3,586.6 62.5,585.1 60.9,524.7 55.7,520.2 56.0,410.0 50.0,400.9 50.8,313.4 57.2,307.4 58.3,302.8 62.5,183.6 69.2,132.3 75.7,97.5 86.6,56.8 94.2,37.2 103.6,17.5 103.6,14.5 109.6,10.0 110.0,10.0" fill="#0b1d24" fill-opacity="0.6" stroke="#07141a" stroke-opacity=".75" stroke-width="19.92" stroke-linejoin="round"/><polygon points="110.0,10.0 110.4,10.0 116.4,14.5 116.4,17.5 125.8,37.2 133.4,56.8 144.3,97.5 150.8,132.3 157.5,183.6 161.7,302.8 162.8,307.4 169.2,313.4 170.0,400.9 164.0,410.0 164.3,520.2 159.1,524.7 157.5,585.1 161.7,586.6 161.7,588.1 110.4,589.6 110.0,589.6 110.0,589.6 109.6,589.6 58.3,588.1 58.3,586.6 62.5,585.1 60.9,524.7 55.7,520.2 56.0,410.0 50.0,400.9 50.8,313.4 57.2,307.4 58.3,302.8 62.5,183.6 69.2,132.3 75.7,97.5 86.6,56.8 94.2,37.2 103.6,17.5 103.6,14.5 109.6,10.0 110.0,10.0" fill="#ffffff" fill-opacity=".22" stroke="#ffffff" stroke-width="8.20" stroke-linejoin="round"/><line x1="110" y1="33.2" x2="110" y2="566.8" stroke="#ffffff" stroke-width="1.88" stroke-dasharray="11.7 8.2" opacity=".4"/><line x1="164.3" y1="365.5" x2="164.3" y2="293.8" stroke="#ffffff" stroke-width="7.03" stroke-linecap="round" opacity=".85"/><line x1="55.7" y1="365.5" x2="55.7" y2="293.8" stroke="#ffffff" stroke-width="7.03" stroke-linecap="round" opacity=".85"/><line x1="156.8" y1="365.5" x2="156.8" y2="293.8" stroke="#ffffff" stroke-width="7.03" stroke-linecap="round" opacity=".85"/><line x1="63.2" y1="365.5" x2="63.2" y2="293.8" stroke="#ffffff" stroke-width="7.03" stroke-linecap="round" opacity=".85"/><polygon points="110.0,229.6 133.8,229.6 141.7,237.5 141.7,474.6 133.8,482.5 110.0,482.5 110.0,482.5 86.2,482.5 78.3,474.6 78.3,237.5 86.2,229.6 110.0,229.6" fill="none" stroke="#ffffff" stroke-width="3.98" stroke-linejoin="round" stroke-linecap="round" opacity=".7"/><circle cx="110" cy="150.4" r="15.1" fill="none" stroke="#ffffff" stroke-width="3.98" stroke-linejoin="round" stroke-linecap="round" opacity=".7"/><circle cx="149.2" cy="452.3" r="10.6" fill="none" stroke="#ffffff" stroke-width="3.98" stroke-linejoin="round" stroke-linecap="round" opacity=".7"/><circle cx="70.8" cy="452.3" r="10.6" fill="none" stroke="#ffffff" stroke-width="3.98" stroke-linejoin="round" stroke-linecap="round" opacity=".7"/></svg>