<svg viewBox="0 -1.5 220 220" width="512" height="512" xmlns="http://www.w3.org/2000/svg" preserveAspectRatio="xMidYMid meet">
    
    <polygon points="110,10 113,18 115.8,33.4 116.2,43.8 119.5,56.8 125.1,70.3 129.7,79.8 136.2,91.2 143.2,101.4 145.7,103.5 182,129.4 213.4,150 212.8,160.8 162.6,138.3 158.6,137.1 136.5,126.6 132.8,128.8 132.8,131.5 122.3,131.5 121.4,141.4 118.6,144.5 115.5,169.7 115.5,174 137.7,195.8 138,205.4 113.1,196.2 110,206.6 110,206.6 106.9,196.2 82,205.4 82.3,195.8 104.5,174 104.5,169.7 101.4,144.5 98.6,141.4 97.7,131.5 87.2,131.5 87.2,128.8 83.5,126.6 61.4,137.1 57.4,138.3 7.200000000000003,160.8 6.599999999999994,150 38,129.4 74.3,103.5 76.8,101.4 83.8,91.2 90.3,79.8 94.9,70.3 100.5,56.8 103.8,43.8 104.2,33.4 107,18 110,10" style="fill:#E9E4D2;stroke:#1E2822;stroke-width:1.6;stroke-linejoin:round"/>
    
    
    
    
    
    
    <ellipse cx="110" cy="33" rx="4" ry="5" style="fill:#9DAA7A;stroke:#1E2822;stroke-width:1"/>
  </svg>