<svg xmlns="http://www.w3.org/2000/svg" viewBox="-18.00 0.00 256.00 256.00" width="512" height="512"><polygon points="110.0,33.8 113.2,34.4 117.1,37.6 121.2,43.4 124.1,51.4 125.4,62.6 126.0,75.5 126.0,86.7 129.9,89.0 129.9,133.2 126.0,135.2 122.8,141.3 119.0,149.3 116.4,155.7 114.5,162.1 113.9,213.5 114.5,215.7 137.6,215.7 138.9,217.3 138.9,227.6 137.6,228.9 113.9,228.9 113.2,242.4 110.0,245.6 110.0,245.6 106.8,242.4 106.1,228.9 82.4,228.9 81.1,227.6 81.1,217.3 82.4,215.7 105.5,215.7 106.1,213.5 105.5,162.1 103.6,155.7 101.0,149.3 97.2,141.3 94.0,135.2 90.1,133.2 90.1,89.0 94.0,86.7 94.0,75.5 94.6,62.6 95.9,51.4 98.8,43.4 102.9,37.6 106.8,34.4 110.0,33.8" fill="#0b1d24" fill-opacity="0.6" stroke="#07141a" stroke-opacity=".75" stroke-width="8.50" stroke-linejoin="round"/><polygon points="110.0,33.8 113.2,34.4 117.1,37.6 121.2,43.4 124.1,51.4 125.4,62.6 126.0,75.5 126.0,86.7 129.9,89.0 129.9,133.2 126.0,135.2 122.8,141.3 119.0,149.3 116.4,155.7 114.5,162.1 113.9,213.5 114.5,215.7 137.6,215.7 138.9,217.3 138.9,227.6 137.6,228.9 113.9,228.9 113.2,242.4 110.0,245.6 110.0,245.6 106.8,242.4 106.1,228.9 82.4,228.9 81.1,227.6 81.1,217.3 82.4,215.7 105.5,215.7 106.1,213.5 105.5,162.1 103.6,155.7 101.0,149.3 97.2,141.3 94.0,135.2 90.1,133.2 90.1,89.0 94.0,86.7 94.0,75.5 94.6,62.6 95.9,51.4 98.8,43.4 102.9,37.6 106.8,34.4 110.0,33.8" fill="#ffffff" fill-opacity=".22" stroke="#ffffff" stroke-width="3.50" stroke-linejoin="round"/><line x1="110" y1="19.4" x2="110" y2="236.6" stroke="#ffffff" stroke-width="0.80" stroke-dasharray="5.0 3.5" opacity=".4"/><circle cx="110" cy="105" r="95" fill="none" stroke="#ffffff" stroke-width="1.70" stroke-linejoin="round" stroke-linecap="round" stroke-dasharray="5.0 3.5" opacity=".6"/><ellipse cx="110" cy="62.599999999999994" rx="9.6" ry="11.2" fill="#ffffff" fill-opacity=".35" stroke="#ffffff" stroke-width="1.70"/></svg>