<svg xmlns="http://www.w3.org/2000/svg" viewBox="0 0 600 140" width="600" height="140" preserveAspectRatio="xMidYMid slice">
<style>
.f *{fill:rgba(155,227,191,.10)!important;stroke:#9be3bf!important;stroke-width:5px!important}
.h *{fill:rgba(255,107,74,.10)!important;stroke:#ff6b4a!important;stroke-width:5px!important}
.y *{fill:rgba(242,193,78,.10)!important;stroke:#f2c14e!important;stroke-width:5px!important}
</style>
<defs><radialGradient id="g" cx="50%" cy="0%" r="110%"><stop offset="0" stop-color="#12333d"/><stop offset=".5" stop-color="#0a1f27"/><stop offset="1" stop-color="#050f13"/></radialGradient></defs>
<rect width="600" height="140" fill="url(#g)"/>
<g stroke="#9be3bf" stroke-opacity=".10" stroke-width="1"><line x1="0" y1="0" x2="0" y2="140"/><line x1="40" y1="0" x2="40" y2="140"/><line x1="80" y1="0" x2="80" y2="140"/><line x1="120" y1="0" x2="120" y2="140"/><line x1="160" y1="0" x2="160" y2="140"/><line x1="200" y1="0" x2="200" y2="140"/><line x1="240" y1="0" x2="240" y2="140"/><line x1="280" y1="0" x2="280" y2="140"/><line x1="320" y1="0" x2="320" y2="140"/><line x1="360" y1="0" x2="360" y2="140"/><line x1="400" y1="0" x2="400" y2="140"/><line x1="440" y1="0" x2="440" y2="140"/><line x1="480" y1="0" x2="480" y2="140"/><line x1="520" y1="0" x2="520" y2="140"/><line x1="560" y1="0" x2="560" y2="140"/><line x1="600" y1="0" x2="600" y2="140"/><line x1="0" y1="0" x2="600" y2="0"/><line x1="0" y1="35" x2="600" y2="35"/><line x1="0" y1="70" x2="600" y2="70"/><line x1="0" y1="105" x2="600" y2="105"/><line x1="0" y1="140" x2="600" y2="140"/></g>
<svg class="h" x="20" y="15" width="110" height="110" xmlns="http://www.w3.org/2000/svg" viewBox="-7.00 0.00 234.00 234.00"><polygon points="110.0,16.0 132.0,18.4 153.0,25.3 172.1,36.6 188.4,51.6 201.1,69.8 209.6,90.2 213.7,112.0 213.0,134.1 207.7,155.6 198.0,175.5 184.2,192.9 167.1,206.9 147.4,217.0 126.0,222.8 126.0,200.0 110.0,200.0 110.0,200.0 94.0,200.0 94.0,222.8 72.6,217.0 52.9,206.9 35.8,192.9 22.0,175.5 12.3,155.6 7.0,134.1 6.3,112.0 10.4,90.2 18.9,69.8 31.6,51.6 47.9,36.6 67.0,25.3 88.0,18.4 110.0,16.0" fill="#0b1d24" fill-opacity="0.6" stroke="#07141a" stroke-opacity=".75" stroke-width="7.77" stroke-linejoin="round"/><polygon points="110.0,16.0 132.0,18.4 153.0,25.3 172.1,36.6 188.4,51.6 201.1,69.8 209.6,90.2 213.7,112.0 213.0,134.1 207.7,155.6 198.0,175.5 184.2,192.9 167.1,206.9 147.4,217.0 126.0,222.8 126.0,200.0 110.0,200.0 110.0,200.0 94.0,200.0 94.0,222.8 72.6,217.0 52.9,206.9 35.8,192.9 22.0,175.5 12.3,155.6 7.0,134.1 6.3,112.0 10.4,90.2 18.9,69.8 31.6,51.6 47.9,36.6 67.0,25.3 88.0,18.4 110.0,16.0" fill="#ffffff" fill-opacity=".22" stroke="#ffffff" stroke-width="3.20" stroke-linejoin="round"/><line x1="110" y1="18.6" x2="110" y2="215.4" stroke="#ffffff" stroke-width="0.73" stroke-dasharray="4.6 3.2" opacity=".4"/><line x1="110" y1="128" x2="164" y2="74" stroke="#ffffff" stroke-width="2.74" stroke-linecap="round" opacity=".85"/><line x1="110" y1="128" x2="56" y2="74" stroke="#ffffff" stroke-width="2.74" stroke-linecap="round" opacity=".85"/><line x1="110" y1="128" x2="164" y2="182" stroke="#ffffff" stroke-width="2.74" stroke-linecap="round" opacity=".85"/><line x1="110" y1="128" x2="56" y2="182" stroke="#ffffff" stroke-width="2.74" stroke-linecap="round" opacity=".85"/><circle cx="110" cy="120" r="86" fill="none" stroke="#ffffff" stroke-width="1.55" stroke-linejoin="round" stroke-linecap="round" stroke-dasharray="4.6 3.2" opacity=".6"/><ellipse cx="110" cy="130" rx="22" ry="22" fill="none" stroke="#ffffff" stroke-width="1.55" stroke-linejoin="round" stroke-linecap="round" opacity=".75"/><polygon points="110.0,22.0 112.0,29.8 113.9,45.4 114.5,55.8 121.7,63.6 121.7,67.5 114.5,67.5 114.5,102.6 133.4,126.0 133.4,131.2 114.5,131.2 115.9,141.6 115.9,165.0 130.8,185.8 130.8,192.3 115.9,192.3 110.0,192.3 110.0,192.3 104.1,192.3 89.2,192.3 89.2,185.8 104.1,165.0 104.1,141.6 105.5,131.2 86.6,131.2 86.6,126.0 105.5,102.6 105.5,67.5 98.3,67.5 98.3,63.6 105.5,55.8 106.1,45.4 108.0,29.8 110.0,22.0" fill="none" stroke="#ffffff" stroke-width="1.55" stroke-linejoin="round" stroke-linecap="round" opacity=".7"/></svg><g fill="none" stroke="#ff6b4a" stroke-width="3"><path d="M14 24V10h14M122 10h14v14M136 118v14h-14M28 132H14v-14"/></g><g transform="rotate(135 180.0 70.0)"><svg class="h" x="140" y="30" width="80" height="80" xmlns="http://www.w3.org/2000/svg" viewBox="-49.00 0.00 318.00 318.00"><polygon points="110.0,10.0 112.1,11.0 116.4,32.0 119.8,65.8 119.8,79.3 120.8,89.0 122.9,96.2 138.1,160.5 210.4,215.6 211.3,214.9 211.3,198.4 213.0,195.3 214.0,201.1 213.8,248.2 208.9,247.5 143.0,230.8 141.8,231.5 142.0,241.2 177.5,268.2 177.8,269.7 171.7,284.4 170.3,285.4 140.6,281.3 137.2,270.4 135.2,270.4 133.3,285.2 119.5,285.2 118.6,275.7 116.6,275.7 113.5,289.3 113.5,301.1 110.0,308.1 110.0,308.1 106.5,301.1 106.5,289.3 103.4,275.7 101.4,275.7 100.5,285.2 86.7,285.2 84.8,270.4 82.8,270.4 79.4,281.3 49.7,285.4 48.3,284.4 42.2,269.7 42.5,268.2 78.0,241.2 78.2,231.5 77.0,230.8 11.1,247.5 6.2,248.2 6.0,201.1 7.0,195.3 8.7,198.4 8.7,214.9 9.6,215.6 81.9,160.5 97.1,96.2 99.2,89.0 100.2,79.3 100.2,65.8 103.6,32.0 107.9,11.0 110.0,10.0" fill="#0b1d24" fill-opacity="0.6" stroke="#07141a" stroke-opacity=".75" stroke-width="10.56" stroke-linejoin="round"/><polygon points="110.0,10.0 112.1,11.0 116.4,32.0 119.8,65.8 119.8,79.3 120.8,89.0 122.9,96.2 138.1,160.5 210.4,215.6 211.3,214.9 211.3,198.4 213.0,195.3 214.0,201.1 213.8,248.2 208.9,247.5 143.0,230.8 141.8,231.5 142.0,241.2 177.5,268.2 177.8,269.7 171.7,284.4 170.3,285.4 140.6,281.3 137.2,270.4 135.2,270.4 133.3,285.2 119.5,285.2 118.6,275.7 116.6,275.7 113.5,289.3 113.5,301.1 110.0,308.1 110.0,308.1 106.5,301.1 106.5,289.3 103.4,275.7 101.4,275.7 100.5,285.2 86.7,285.2 84.8,270.4 82.8,270.4 79.4,281.3 49.7,285.4 48.3,284.4 42.2,269.7 42.5,268.2 78.0,241.2 78.2,231.5 77.0,230.8 11.1,247.5 6.2,248.2 6.0,201.1 7.0,195.3 8.7,198.4 8.7,214.9 9.6,215.6 81.9,160.5 97.1,96.2 99.2,89.0 100.2,79.3 100.2,65.8 103.6,32.0 107.9,11.0 110.0,10.0" fill="#ffffff" fill-opacity=".22" stroke="#ffffff" stroke-width="4.35" stroke-linejoin="round"/><line x1="110" y1="21.9" x2="110" y2="296.1" stroke="#ffffff" stroke-width="0.99" stroke-dasharray="6.2 4.3" opacity=".4"/><line x1="141" y1="216" x2="141" y2="271" stroke="#ffffff" stroke-width="3.73" stroke-linecap="round" opacity=".85"/><line x1="79" y1="216" x2="79" y2="271" stroke="#ffffff" stroke-width="3.73" stroke-linecap="round" opacity=".85"/><ellipse cx="110" cy="89" rx="8" ry="23" fill="#ffffff" fill-opacity=".35" stroke="#ffffff" stroke-width="2.11"/></svg></g><svg class="h" x="470" y="15" width="110" height="110" xmlns="http://www.w3.org/2000/svg" viewBox="-6.00 0.00 232.00 232.00"><polygon points="110.0,10.0 126.7,10.0 126.7,15.7 127.6,16.5 127.6,48.3 126.4,48.7 126.4,58.0 130.0,58.0 130.0,108.9 129.4,109.2 110.0,109.2 110.0,109.2 90.6,109.2 90.0,108.9 90.0,58.0 93.6,58.0 93.6,48.7 92.4,48.3 92.4,16.5 93.3,15.7 93.3,10.0 110.0,10.0" fill="#0b1d24" fill-opacity="0.6" stroke="#07141a" stroke-opacity=".75" stroke-width="7.70" stroke-linejoin="round"/><polygon points="110.0,10.0 126.7,10.0 126.7,15.7 127.6,16.5 127.6,48.3 126.4,48.7 126.4,58.0 130.0,58.0 130.0,108.9 129.4,109.2 110.0,109.2 110.0,109.2 90.6,109.2 90.0,108.9 90.0,58.0 93.6,58.0 93.6,48.7 92.4,48.3 92.4,16.5 93.3,15.7 93.3,10.0 110.0,10.0" fill="#ffffff" fill-opacity=".22" stroke="#ffffff" stroke-width="3.17" stroke-linejoin="round"/><line x1="110" y1="18.5" x2="110" y2="213.5" stroke="#ffffff" stroke-width="0.73" stroke-dasharray="4.5 3.2" opacity=".4"/><line x1="110" y1="118" x2="212" y2="118" stroke="#ffffff" stroke-width="2.72" stroke-linecap="round" opacity=".85"/><line x1="110" y1="118" x2="8" y2="118" stroke="#ffffff" stroke-width="2.72" stroke-linecap="round" opacity=".85"/><line x1="138" y1="84" x2="138" y2="122" stroke="#ffffff" stroke-width="2.72" stroke-linecap="round" opacity=".85"/><line x1="82" y1="84" x2="82" y2="122" stroke="#ffffff" stroke-width="2.72" stroke-linecap="round" opacity=".85"/><line x1="131" y1="90" x2="145" y2="90" stroke="#ffffff" stroke-width="2.72" stroke-linecap="round" opacity=".85"/><line x1="89" y1="90" x2="75" y2="90" stroke="#ffffff" stroke-width="2.72" stroke-linecap="round" opacity=".85"/><line x1="131" y1="102" x2="145" y2="102" stroke="#ffffff" stroke-width="2.72" stroke-linecap="round" opacity=".85"/><line x1="89" y1="102" x2="75" y2="102" stroke="#ffffff" stroke-width="2.72" stroke-linecap="round" opacity=".85"/><line x1="162" y1="84" x2="162" y2="122" stroke="#ffffff" stroke-width="2.72" stroke-linecap="round" opacity=".85"/><line x1="58" y1="84" x2="58" y2="122" stroke="#ffffff" stroke-width="2.72" stroke-linecap="round" opacity=".85"/><line x1="155" y1="90" x2="169" y2="90" stroke="#ffffff" stroke-width="2.72" stroke-linecap="round" opacity=".85"/><line x1="65" y1="90" x2="51" y2="90" stroke="#ffffff" stroke-width="2.72" stroke-linecap="round" opacity=".85"/><line x1="155" y1="102" x2="169" y2="102" stroke="#ffffff" stroke-width="2.72" stroke-linecap="round" opacity=".85"/><line x1="65" y1="102" x2="51" y2="102" stroke="#ffffff" stroke-width="2.72" stroke-linecap="round" opacity=".85"/><line x1="186" y1="84" x2="186" y2="122" stroke="#ffffff" stroke-width="2.72" stroke-linecap="round" opacity=".85"/><line x1="34" y1="84" x2="34" y2="122" stroke="#ffffff" stroke-width="2.72" stroke-linecap="round" opacity=".85"/><line x1="179" y1="90" x2="193" y2="90" stroke="#ffffff" stroke-width="2.72" stroke-linecap="round" opacity=".85"/><line x1="41" y1="90" x2="27" y2="90" stroke="#ffffff" stroke-width="2.72" stroke-linecap="round" opacity=".85"/><line x1="179" y1="102" x2="193" y2="102" stroke="#ffffff" stroke-width="2.72" stroke-linecap="round" opacity=".85"/><line x1="41" y1="102" x2="27" y2="102" stroke="#ffffff" stroke-width="2.72" stroke-linecap="round" opacity=".85"/><line x1="210" y1="84" x2="210" y2="122" stroke="#ffffff" stroke-width="2.72" stroke-linecap="round" opacity=".85"/><line x1="10" y1="84" x2="10" y2="122" stroke="#ffffff" stroke-width="2.72" stroke-linecap="round" opacity=".85"/><line x1="203" y1="90" x2="214" y2="90" stroke="#ffffff" stroke-width="2.72" stroke-linecap="round" opacity=".85"/><line x1="17" y1="90" x2="6" y2="90" stroke="#ffffff" stroke-width="2.72" stroke-linecap="round" opacity=".85"/><line x1="203" y1="102" x2="214" y2="102" stroke="#ffffff" stroke-width="2.72" stroke-linecap="round" opacity=".85"/><line x1="17" y1="102" x2="6" y2="102" stroke="#ffffff" stroke-width="2.72" stroke-linecap="round" opacity=".85"/><circle cx="110" cy="118" r="104" fill="none" stroke="#ffffff" stroke-width="1.54" stroke-linejoin="round" stroke-linecap="round" stroke-dasharray="4.5 3.2" opacity=".6"/><ellipse cx="110" cy="118" rx="6" ry="6" fill="none" stroke="#ffffff" stroke-width="1.54" stroke-linejoin="round" stroke-linecap="round" opacity=".75"/><polygon points="110.0,58.0 129.6,58.0 130.0,58.5 130.0,108.6 129.6,108.9 110.0,108.9 110.0,108.9 90.4,108.9 90.0,108.6 90.0,58.5 90.4,58.0 110.0,58.0" fill="none" stroke="#ffffff" stroke-width="1.54" stroke-linejoin="round" stroke-linecap="round" opacity=".7"/><ellipse cx="110" cy="35.1" rx="12.7" ry="1.5" fill="#ffffff" fill-opacity=".35" stroke="#ffffff" stroke-width="1.54"/></svg><g fill="none" stroke="#ff6b4a" stroke-width="3"><path d="M464 24V10h14M572 10h14v14M586 118v14h-14M478 132H464v-14"/></g><svg class="h" x="390" y="40" width="70" height="70" xmlns="http://www.w3.org/2000/svg" viewBox="-66.50 0.00 353.00 353.00"><polygon points="110.0,103.1 167.9,103.1 170.0,105.2 170.0,341.0 167.9,343.1 110.0,343.1 110.0,343.1 52.1,343.1 50.0,341.0 50.0,105.2 52.1,103.1 110.0,103.1" fill="#0b1d24" fill-opacity="0.6" stroke="#07141a" stroke-opacity=".75" stroke-width="11.72" stroke-linejoin="round"/><polygon points="110.0,103.1 167.9,103.1 170.0,105.2 170.0,341.0 167.9,343.1 110.0,343.1 110.0,343.1 52.1,343.1 50.0,341.0 50.0,105.2 52.1,103.1 110.0,103.1" fill="#ffffff" fill-opacity=".22" stroke="#ffffff" stroke-width="4.83" stroke-linejoin="round"/><line x1="110" y1="23.3" x2="110" y2="329.7" stroke="#ffffff" stroke-width="1.10" stroke-dasharray="6.9 4.8" opacity=".4"/><line x1="151.4" y1="107.2" x2="151.4" y2="339" stroke="#ffffff" stroke-width="4.14" stroke-linecap="round" opacity=".85"/><line x1="68.6" y1="107.2" x2="68.6" y2="339" stroke="#ffffff" stroke-width="4.14" stroke-linecap="round" opacity=".85"/><polygon points="110.0,10.0 112.8,10.0 112.8,61.0 113.4,61.7 113.4,92.1 112.8,92.8 112.8,112.8 113.8,114.1 113.8,150.7 122.4,151.4 122.4,157.6 130.7,159.7 145.9,172.1 158.3,184.5 162.4,195.5 163.1,216.2 160.3,233.4 155.5,247.2 150.0,254.1 141.0,261.7 129.3,266.6 110.0,268.6 110.0,268.6 90.7,266.6 79.0,261.7 70.0,254.1 64.5,247.2 59.7,233.4 56.9,216.2 57.6,195.5 61.7,184.5 74.1,172.1 89.3,159.7 97.6,157.6 97.6,151.4 106.2,150.7 106.2,114.1 107.2,112.8 107.2,92.8 106.6,92.1 106.6,61.7 107.2,61.0 107.2,10.0 110.0,10.0" fill="none" stroke="#ffffff" stroke-width="2.34" stroke-linejoin="round" stroke-linecap="round" opacity=".7"/><ellipse cx="131.4" cy="236.89999999999998" rx="9.7" ry="9.7" fill="#ffffff" fill-opacity=".35" stroke="#ffffff" stroke-width="2.34"/></svg>
<rect x="1.5" y="1.5" width="597" height="137" fill="none" stroke="#ff6b4a" stroke-opacity=".55" stroke-width="2"/>
<path d="M2 18V2h16M582 2h16v16M598 122v16h-16M18 138H2v-16" fill="none" stroke="#ff6b4a" stroke-width="3"/>
</svg>